<svg id="Capa_1" enable-background="new 0 0 512 512" height="512" viewBox="0 0 512 512" width="512" xmlns="http://www.w3.org/2000/svg"><circle cx="467" cy="45" fill="#dddce6" r="15"/><circle cx="497" cy="165" fill="#dddce6" r="15"/><path d="m407 90c-24.901 0-45-20.099-45-45 0-8.401-6.599-15-15-15s-15 6.599-15 15c0 24.901-21.099 45-46 45-8.401 0-15 6.599-15 15s6.599 15 15 15c24.901 0 46 20.099 46 45 0 8.401 6.599 15 15 15s15-6.599 15-15c0-24.901 20.099-45 45-45 8.401 0 15-6.599 15-15s-6.599-15-15-15z" fill="#f2eef3"/><path d="m422 105c0 8.401-6.599 15-15 15-24.901 0-45 20.099-45 45 0 8.401-6.599 15-15 15v-150c8.401 0 15 6.599 15 15 0 24.901 20.099 45 45 45 8.401 0 15 6.599 15 15z" fill="#dddce6"/><path d="m492.796 320.541c-5.449-3.794-12.788-3.56-18.003.63-32.329 26.059-71.338 39.829-112.793 39.829-46.126 0-89.116-18.585-121-47.214-36.727-32.975-60-80.654-60-133.786 0-51.736 22.134-99.688 60-133.555 7.56-6.762 15.516-13.163 24.302-18.701 5.654-3.56 7.617-10.459 5.757-16.875-1.846-6.416-8.379-10.869-15.059-10.869-5.063 0-10.009.467-15 .76-133.616 7.831-241 118.693-241 254.24s107.384 248.409 241 256.24c4.991.293 9.937.76 15 .76 109.336 0 207.353-70.668 242.421-174.35 2.139-6.313-.161-13.286-5.625-17.109z" fill="#ffda2d"/><g fill="#fdbf00"><path d="m498.421 337.65c2.139-6.313-.161-13.286-5.625-17.109-5.449-3.794-12.788-3.56-18.003.63-32.329 26.059-71.338 39.829-112.793 39.829-46.126 0-89.116-18.585-121-47.214v197.454c4.991.293 9.937.76 15 .76 109.336 0 207.353-70.668 242.421-174.35z"/><path d="m265.302 27.744c5.654-3.56 7.617-10.459 5.757-16.875-1.846-6.416-8.379-10.869-15.059-10.869-5.063 0-10.009.467-15 .76v45.685c7.56-6.762 15.516-13.164 24.302-18.701z"/></g></svg>